<svg id="search" xmlns="http://www.w3.org/2000/svg" width="27.945" height="27.945" viewBox="0 0 27.945 27.945">
  <path id="Trazado_1231" data-name="Trazado 1231" d="M6.193,147.609l-.973,3.631-3.555.075a14,14,0,0,1-.1-13.048h0l3.165.58,1.387,3.146a8.339,8.339,0,0,0,.078,5.614Z" transform="translate(0 -130.721)" fill="#fbbb00"/>
  <path id="Trazado_1232" data-name="Trazado 1232" d="M275.049,208.176a13.967,13.967,0,0,1-4.981,13.507h0l-3.987-.2-.564-3.522A8.328,8.328,0,0,0,269.1,213.7h-7.472v-5.528h13.421Z" transform="translate(-247.348 -196.814)" fill="#518ef8"/>
  <path id="Trazado_1233" data-name="Trazado 1233" d="M51.563,317.389h0a13.977,13.977,0,0,1-21.055-4.275l4.528-3.707a8.31,8.31,0,0,0,11.975,4.255Z" transform="translate(-28.844 -292.521)" fill="#28b446"/>
  <path id="Trazado_1234" data-name="Trazado 1234" d="M49.953,3.217,45.426,6.923a8.309,8.309,0,0,0-12.25,4.351L28.625,7.547h0a13.976,13.976,0,0,1,21.329-4.33Z" transform="translate(-27.062)" fill="#f14336"/>
</svg>
